# xmcd CD database file
#
# Track frame offsets:
#	150
#	37780
#	77819
#	106694
#	138577
#	181054
#	212762
#	247270
#	275579
#	303831
#
# Disc length: 4336 seconds
#
# Revision: 0
# Processed by: cddbd v1.5.2PL0 Copyright (c) Steve Scherf et al.
# Submitted via: CDex 1.51
#
DISCID=8210ee0a
DTITLE=John Swana and the Philadelphians - Philly Gumbo vol.2
DYEAR=2004
DGENRE=Jazz
TTITLE0=Sid's Dilemma
TTITLE1=127 W. Wilt Street
TTITLE2=Three of a kind
TTITLE3=Ortlieb's
TTITLE4=Quasimodo's Uncle
TTITLE5=Everything happens to m e
TTITLE6=Mingus and Jaco
TTITLE7=It'sover your head
TTITLE8=Bootsie's Bolero
TTITLE9=In memory of...
EXTD=YEAR: 2004
EXTT0=
EXTT1=
EXTT2=
EXTT3=
EXTT4=
EXTT5=
EXTT6=
EXTT7=
EXTT8=
EXTT9=
PLAYORDER=
